<svg width="20" height="20" viewBox="0 0 20 20" fill="none" xmlns="http://www.w3.org/2000/svg">
<path d="M12.3769 3.10358L13.0587 4.53141H15.2582C15.9345 4.53141 16.4827 5.05772 16.4827 5.70695V6.57751C16.4827 7.0214 16.1079 7.38124 15.6455 7.38124H4.17071C3.70833 7.38124 3.3335 7.0214 3.3335 6.57751V5.70695C3.3335 5.05772 3.88173 4.53141 4.55802 4.53141H6.75754L7.43937 3.10358C7.64395 2.6751 8.08995 2.40039 8.58095 2.40039H11.2353C11.7263 2.40039 12.1722 2.6751 12.3769 3.10358Z" stroke="white" stroke-width="1.5" stroke-linecap="round" stroke-linejoin="round"/>
<path d="M15.2 7.44043V14.389C15.2 15.7207 14.0895 16.8002 12.7195 16.8002H7.09717C5.72725 16.8002 4.6167 15.7207 4.6167 14.389V7.44043" stroke="white" stroke-width="1.5" stroke-linecap="round" stroke-linejoin="round"/>
<path d="M8.49951 10.2529V13.8597M11.3165 10.2529V13.8597" stroke="white" stroke-width="1.5" stroke-linecap="round" stroke-linejoin="round"/>
</svg>
