<svg width="20" height="20" viewBox="0 0 20 20" fill="none" xmlns="http://www.w3.org/2000/svg">
<path d="M12.3769 3.10322L13.0587 4.53105H15.2582C15.9345 4.53105 16.4827 5.05735 16.4827 5.70658V6.57714C16.4827 7.02103 16.1079 7.38087 15.6455 7.38087H4.17071C3.70833 7.38087 3.3335 7.02103 3.3335 6.57714V5.70658C3.3335 5.05735 3.88173 4.53105 4.55802 4.53105H6.75754L7.43937 3.10322C7.64395 2.67474 8.08995 2.40002 8.58095 2.40002H11.2353C11.7263 2.40002 12.1722 2.67474 12.3769 3.10322Z" stroke="#0E121B" stroke-width="1.5" stroke-linecap="round" stroke-linejoin="round"/>
<path d="M15.2 7.44061V14.3892C15.2 15.7209 14.0895 16.8004 12.7195 16.8004H7.09717C5.72725 16.8004 4.6167 15.7209 4.6167 14.3892V7.44061" stroke="#0E121B" stroke-width="1.5" stroke-linecap="round" stroke-linejoin="round"/>
<path d="M8.49951 10.2531V13.8598M11.3165 10.2531V13.8598" stroke="#0E121B" stroke-width="1.5" stroke-linecap="round" stroke-linejoin="round"/>
</svg>
