<svg width="444" height="37" viewBox="0 0 444 37" fill="none" xmlns="http://www.w3.org/2000/svg">
<g clip-path="url(#clip0_2195_31390)">
<g clip-path="url(#clip1_2195_31390)">
<path fill-rule="evenodd" clip-rule="evenodd" d="M201.9 2.65804C200.868 0.692436 197.474 1.30984 194.541 2.09524C181.791 6.79364 177.281 16.3417 175.696 22.0299C175.617 22.1727 175.57 22.3365 175.566 22.5115C174.938 24.9251 174.853 26.5337 174.852 26.5869C174.828 27.1651 175.277 27.6537 175.855 27.6775C175.871 27.6789 175.886 27.6789 175.902 27.6789C176.46 27.6789 176.925 27.2379 176.95 26.6737C176.957 26.5029 177.022 25.3283 177.418 23.5727C180.929 23.4243 184.464 22.1167 187.936 19.6751C188.208 19.4847 188.373 19.1767 188.383 18.8463C188.392 18.5145 188.244 18.1981 187.985 17.9937L186.383 16.7253L191.639 16.2101C191.853 16.1891 192.055 16.1037 192.219 15.9637C192.332 15.8685 195.007 13.5781 197.553 10.9082C201.424 6.84824 202.763 4.30444 201.9 2.65804Z" fill="#335CFF"/>
<path fill-rule="evenodd" clip-rule="evenodd" d="M195.678 25.5798H186.704C186.125 25.5798 185.654 26.0502 185.654 26.6298C185.654 27.2094 186.125 27.6798 186.704 27.6798H195.678C196.258 27.6798 196.728 27.2094 196.728 26.6298C196.728 26.0502 196.258 25.5798 195.678 25.5798Z" fill="#335CFF"/>
</g>
<path d="M217.836 24.115C217.269 24.115 216.862 23.9923 216.617 23.747C216.372 23.4863 216.249 23.0033 216.249 22.298C216.249 21.8227 216.295 21.2477 216.387 20.573C216.479 19.8983 216.64 18.8787 216.87 17.514C216.901 17.33 217.023 16.5863 217.238 15.283C217.453 13.9643 217.644 12.5843 217.813 11.143C217.966 9.91633 218.043 8.99633 218.043 8.383C218.043 7.693 217.79 7.348 217.284 7.348C216.901 7.348 216.418 7.555 215.835 7.969C215.268 8.36767 214.654 9.01167 213.995 9.901C213.78 10.1923 213.543 10.338 213.282 10.338C213.067 10.338 212.876 10.2383 212.707 10.039C212.554 9.82433 212.477 9.58667 212.477 9.326C212.477 9.06533 212.523 8.82 212.615 8.59C212.707 8.34467 212.876 8.05333 213.121 7.716C213.872 6.68867 214.708 5.899 215.628 5.347C216.548 4.77967 217.514 4.496 218.526 4.496C219.369 4.496 219.998 4.75667 220.412 5.278C220.841 5.79933 221.056 6.55833 221.056 7.555C221.056 8.44433 220.933 9.73233 220.688 11.419C221.455 9.14967 222.428 7.43233 223.609 6.267C224.79 5.08633 226.177 4.496 227.772 4.496C229.029 4.496 229.972 4.85633 230.601 5.577C231.245 6.28233 231.567 7.233 231.567 8.429C231.567 9.10367 231.467 9.924 231.268 10.89L229.865 17.468C229.712 18.2347 229.635 18.894 229.635 19.446C229.635 20.09 229.781 20.573 230.072 20.895C230.379 21.217 230.8 21.378 231.337 21.378C231.843 21.378 232.334 21.2093 232.809 20.872C233.3 20.5347 233.875 19.975 234.534 19.193C234.718 18.9783 234.925 18.871 235.155 18.871C235.354 18.871 235.508 18.963 235.615 19.147C235.738 19.331 235.799 19.584 235.799 19.906C235.799 20.504 235.653 20.9793 235.362 21.332C234.565 22.298 233.775 23.0033 232.993 23.448C232.211 23.8927 231.391 24.115 230.532 24.115C229.229 24.115 228.209 23.7317 227.473 22.965C226.737 22.183 226.369 21.1403 226.369 19.837C226.369 19.331 226.407 18.779 226.484 18.181C226.576 17.583 226.722 16.824 226.921 15.904L227.841 11.695C227.872 11.557 227.925 11.3117 228.002 10.959C228.079 10.6063 228.14 10.2767 228.186 9.97C228.232 9.648 228.255 9.33367 228.255 9.027C228.255 8.53633 228.117 8.14533 227.841 7.854C227.565 7.56267 227.174 7.417 226.668 7.417C225.748 7.417 224.828 7.90767 223.908 8.889C222.988 9.87033 222.137 11.4573 221.355 13.65C220.573 15.8273 219.96 18.618 219.515 22.022C219.408 22.804 219.247 23.3483 219.032 23.655C218.833 23.9617 218.434 24.115 217.836 24.115ZM245.201 16.939C245.4 16.939 245.554 17.0387 245.661 17.238C245.768 17.4373 245.822 17.6903 245.822 17.997C245.822 18.733 245.6 19.17 245.155 19.308C244.235 19.63 243.223 19.814 242.119 19.86C241.828 21.148 241.253 22.183 240.394 22.965C239.535 23.7317 238.562 24.115 237.473 24.115C236.553 24.115 235.763 23.8927 235.104 23.448C234.46 23.0033 233.969 22.413 233.632 21.677C233.295 20.941 233.126 20.1437 233.126 19.285C233.126 18.1197 233.348 17.0847 233.793 16.18C234.238 15.26 234.851 14.547 235.633 14.041C236.415 13.5197 237.281 13.259 238.232 13.259C239.397 13.259 240.333 13.6653 241.038 14.478C241.759 15.2753 242.18 16.2643 242.303 17.445C243.024 17.399 243.882 17.2457 244.879 16.985C245.002 16.9543 245.109 16.939 245.201 16.939ZM237.657 21.677C238.148 21.677 238.569 21.4777 238.922 21.079C239.29 20.6803 239.535 20.1053 239.658 19.354C239.183 19.032 238.815 18.6103 238.554 18.089C238.309 17.5677 238.186 17.0157 238.186 16.433C238.186 16.1877 238.209 15.9423 238.255 15.697H238.14C237.527 15.697 237.013 15.996 236.599 16.594C236.2 17.1767 236.001 18.0047 236.001 19.078C236.001 19.9213 236.162 20.5653 236.484 21.01C236.821 21.4547 237.212 21.677 237.657 21.677ZM254.23 18.871C254.429 18.871 254.583 18.963 254.69 19.147C254.813 19.331 254.874 19.584 254.874 19.906C254.874 20.5193 254.728 20.9947 254.437 21.332C253.778 22.1447 253.057 22.8117 252.275 23.333C251.493 23.8543 250.596 24.115 249.584 24.115C246.456 24.115 244.892 21.9147 244.892 17.514C244.892 16.8393 244.915 16.157 244.961 15.467H244.064C243.604 15.467 243.29 15.3827 243.121 15.214C242.968 15.0453 242.891 14.777 242.891 14.409C242.891 13.5503 243.236 13.121 243.926 13.121H245.237C245.498 11.4343 245.896 9.89333 246.433 8.498C246.97 7.10267 247.614 5.991 248.365 5.163C249.132 4.335 249.952 3.921 250.826 3.921C251.47 3.921 251.976 4.20467 252.344 4.772C252.712 5.33933 252.896 6.05233 252.896 6.911C252.896 9.28767 251.899 11.3577 249.906 13.121H252.482C252.727 13.121 252.904 13.1747 253.011 13.282C253.118 13.3893 253.172 13.5887 253.172 13.88C253.172 14.938 252.306 15.467 250.573 15.467H247.767C247.736 16.2337 247.721 16.8317 247.721 17.261C247.721 18.8557 247.905 19.975 248.273 20.619C248.656 21.263 249.254 21.585 250.067 21.585C250.726 21.585 251.309 21.3857 251.815 20.987C252.321 20.5883 252.919 19.9903 253.609 19.193C253.793 18.9783 254 18.871 254.23 18.871ZM250.205 6.129C249.975 6.129 249.714 6.42033 249.423 7.003C249.147 7.57033 248.879 8.36767 248.618 9.395C248.373 10.407 248.166 11.534 247.997 12.776C248.902 11.994 249.576 11.12 250.021 10.154C250.481 9.17267 250.711 8.28333 250.711 7.486C250.711 6.58133 250.542 6.129 250.205 6.129ZM262.799 18.871C262.999 18.871 263.152 18.963 263.259 19.147C263.382 19.331 263.443 19.584 263.443 19.906C263.443 20.5193 263.298 20.9947 263.006 21.332C262.439 22.022 261.634 22.6583 260.591 23.241C259.564 23.8237 258.46 24.115 257.279 24.115C255.669 24.115 254.42 23.678 253.53 22.804C252.641 21.93 252.196 20.734 252.196 19.216C252.196 18.158 252.419 17.1767 252.863 16.272C253.308 15.352 253.921 14.6237 254.703 14.087C255.501 13.5503 256.398 13.282 257.394 13.282C258.284 13.282 258.997 13.5503 259.533 14.087C260.07 14.6083 260.338 15.3213 260.338 16.226C260.338 17.284 259.955 18.1963 259.188 18.963C258.437 19.7143 257.157 20.3123 255.347 20.757C255.731 21.4623 256.459 21.815 257.532 21.815C258.222 21.815 259.004 21.5773 259.878 21.102C260.768 20.6113 261.534 19.975 262.178 19.193C262.362 18.9783 262.569 18.871 262.799 18.871ZM257.003 15.536C256.436 15.536 255.953 15.8657 255.554 16.525C255.171 17.1843 254.979 17.9817 254.979 18.917V18.963C255.884 18.7483 256.597 18.4263 257.118 17.997C257.64 17.5677 257.9 17.0693 257.9 16.502C257.9 16.2107 257.816 15.9807 257.647 15.812C257.494 15.628 257.279 15.536 257.003 15.536ZM265.389 24.621C264.591 24.621 263.978 24.437 263.549 24.069C263.135 23.701 262.928 23.287 262.928 22.827C262.928 22.4283 263.073 22.0833 263.365 21.792C263.656 21.5007 264.085 21.355 264.653 21.355C264.852 21.355 265.082 21.378 265.343 21.424C265.619 21.4547 265.826 21.4777 265.964 21.493C265.948 21.0943 265.856 20.7187 265.688 20.366C265.534 20.0133 265.335 19.676 265.09 19.354C264.844 19.0167 264.614 18.7253 264.4 18.48C263.924 19.3847 263.449 20.136 262.974 20.734C262.514 21.332 262.008 21.8993 261.456 22.436C261.18 22.712 260.888 22.85 260.582 22.85C260.336 22.85 260.137 22.7657 259.984 22.597C259.83 22.413 259.754 22.1907 259.754 21.93C259.754 21.6233 259.861 21.3397 260.076 21.079L260.375 20.711C261.218 19.6683 261.854 18.8097 262.284 18.135C262.56 17.6903 262.836 17.1613 263.112 16.548C263.403 15.9347 263.779 15.099 264.239 14.041C264.53 13.3663 265.136 13.029 266.056 13.029C266.485 13.029 266.784 13.0673 266.953 13.144C267.121 13.2207 267.206 13.3433 267.206 13.512C267.206 13.604 267.175 13.7497 267.114 13.949C267.052 14.1483 266.968 14.3477 266.861 14.547C266.585 15.099 266.447 15.5667 266.447 15.95C266.447 16.18 266.523 16.433 266.677 16.709C266.845 16.985 267.098 17.33 267.436 17.744C267.926 18.388 268.294 18.94 268.54 19.4C268.8 19.8447 268.931 20.3353 268.931 20.872C268.931 21.516 268.777 22.1293 268.471 22.712C268.179 23.2793 267.765 23.7393 267.229 24.092C266.692 24.4447 266.079 24.621 265.389 24.621Z" fill="#0E121B"/>
</g>
<defs>
<clipPath id="clip0_2195_31390">
<rect width="95" height="28" fill="white" transform="translate(174.5 0.5)"/>
</clipPath>
<clipPath id="clip1_2195_31390">
<rect width="28" height="28" fill="white" transform="translate(174.5 0.5)"/>
</clipPath>
</defs>
</svg>
