<svg width="24" height="24" viewBox="0 0 24 24" fill="none" xmlns="http://www.w3.org/2000/svg">
<path d="M3 17.3654L6.60467 6.43457H8.54051L12.1452 17.3654H10.3762L8.60726 11.4077C8.42925 10.8069 8.25125 10.2061 8.07324 9.60534C7.90635 8.99344 7.73947 8.38154 7.57259 7.76963H7.50584C7.35008 8.38154 7.1832 8.99344 7.00519 9.60534C6.8383 10.2061 6.66586 10.8069 6.48785 11.4077L4.7022 17.3654H3ZM5.01928 14.228V12.9096H10.0925V14.228H5.01928Z" fill="white"/>
<path d="M16.3441 17.5657C15.8212 17.5657 15.3484 17.4711 14.9256 17.282C14.514 17.0817 14.1858 16.8091 13.941 16.4642C13.7074 16.1082 13.5905 15.691 13.5905 15.2126C13.5905 14.3003 14.0356 13.605 14.9256 13.1266C15.8268 12.6482 17.3009 12.3311 19.348 12.1753C19.3369 11.8416 19.259 11.5356 19.1144 11.2575C18.9809 10.9793 18.7639 10.7624 18.4635 10.6066C18.1743 10.4398 17.7904 10.3563 17.312 10.3563C16.9783 10.3563 16.6501 10.4008 16.3274 10.4898C16.0048 10.5677 15.6933 10.679 15.3929 10.8236C15.0925 10.9682 14.8088 11.1184 14.5418 11.2742L13.9243 10.1561C14.2247 9.97805 14.5696 9.80004 14.959 9.62203C15.3484 9.4329 15.7656 9.2827 16.2106 9.17145C16.6667 9.06019 17.1285 9.00457 17.5957 9.00457C18.3523 9.00457 18.9809 9.14363 19.4815 9.42177C19.9822 9.69991 20.3604 10.0949 20.6163 10.6066C20.8722 11.1184 21.0001 11.7359 21.0001 12.459V17.3654H19.6484L19.5149 16.314H19.4648C19.0309 16.6478 18.5414 16.9426 17.9962 17.1985C17.4511 17.4433 16.9004 17.5657 16.3441 17.5657ZM16.8114 16.2473C17.2453 16.2473 17.6736 16.1527 18.0964 15.9636C18.5191 15.7744 18.9364 15.5074 19.348 15.1625V13.2267C18.2799 13.3046 17.44 13.427 16.8281 13.5938C16.2273 13.7607 15.8045 13.9721 15.5598 14.228C15.315 14.4728 15.1926 14.762 15.1926 15.0958C15.1926 15.3628 15.2649 15.5853 15.4096 15.7633C15.5653 15.9302 15.7656 16.0526 16.0103 16.1305C16.2551 16.2083 16.5221 16.2473 16.8114 16.2473Z" fill="white"/>
</svg>
