<svg width="24" height="24" viewBox="0 0 24 24" fill="none" xmlns="http://www.w3.org/2000/svg">
<path d="M4.80799 17.5506H3L7.06246 6.26172H9.0303L13.0928 17.5506H11.2848L8.09323 8.31224H8.00504L4.80799 17.5506ZM5.11116 13.1299H10.9761V14.563H5.11116V13.1299Z" fill="white"/>
<path d="M16.8218 17.738C16.2853 17.738 15.8002 17.6388 15.3666 17.4404C14.933 17.2383 14.5894 16.9461 14.3358 16.5639C14.0859 16.1818 13.961 15.7132 13.961 15.1583C13.961 14.6806 14.0528 14.2874 14.2366 13.9787C14.4203 13.6701 14.6684 13.4257 14.9807 13.2456C15.2931 13.0656 15.6422 12.9296 16.028 12.8377C16.4139 12.7459 16.8071 12.676 17.2076 12.6283C17.7148 12.5695 18.1263 12.5217 18.4424 12.4849C18.7584 12.4445 18.9881 12.3802 19.1314 12.292C19.2747 12.2038 19.3464 12.0605 19.3464 11.8621V11.8235C19.3464 11.3421 19.2104 10.9691 18.9385 10.7045C18.6702 10.4399 18.2696 10.3076 17.7368 10.3076C17.1819 10.3076 16.7446 10.4307 16.4249 10.677C16.1089 10.9195 15.8902 11.1896 15.769 11.4872L14.22 11.1345C14.4038 10.62 14.672 10.2047 15.0248 9.88872C15.3813 9.56901 15.791 9.3375 16.254 9.19419C16.7171 9.0472 17.204 8.9737 17.7148 8.9737C18.0528 8.9737 18.4111 9.01412 18.7896 9.09497C19.1718 9.17214 19.5283 9.31545 19.859 9.52491C20.1934 9.73438 20.4672 10.0339 20.6803 10.4234C20.8934 10.8092 21 11.3109 21 11.9282V17.5506H19.3904V16.3931H19.3243C19.2177 16.6062 19.0579 16.8157 18.8447 17.0214C18.6316 17.2272 18.3578 17.3981 18.0234 17.5341C17.689 17.67 17.2885 17.738 16.8218 17.738ZM17.1801 16.4151C17.6357 16.4151 18.0253 16.3251 18.3487 16.145C18.6757 15.965 18.9238 15.7298 19.0928 15.4395C19.2655 15.1455 19.3519 14.8313 19.3519 14.4969V13.4055C19.2931 13.4643 19.1792 13.5194 19.0101 13.5708C18.8447 13.6186 18.6555 13.6609 18.4424 13.6976C18.2292 13.7307 18.0216 13.7619 17.8195 13.7913C17.6174 13.817 17.4483 13.8391 17.3124 13.8575C16.9927 13.8979 16.7005 13.9659 16.4359 14.0614C16.175 14.157 15.9656 14.2948 15.8075 14.4748C15.6532 14.6512 15.576 14.8864 15.576 15.1804C15.576 15.5883 15.7267 15.897 16.028 16.1064C16.3294 16.3122 16.7134 16.4151 17.1801 16.4151Z" fill="white"/>
</svg>
